<svg xmlns="http://www.w3.org/2000/svg" viewBox="0 0 64 64" fill="none">
  <!-- Simplified gryphon silhouette inspired by the brand logo -->
  <!-- Body -->
  <path d="M16 52 C16 52 14 44 18 38 C20 34 22 32 24 30 C22 28 20 24 20 20 C20 14 24 10 28 8 C30 7 32 6 34 6 C36 6 38 8 40 10 C42 12 44 14 44 18 C44 20 43 22 42 24 L46 24 C48 24 50 26 50 28 C50 30 48 32 46 32 L42 32 C42 34 44 36 46 38 C48 40 50 44 50 48 C50 50 48 52 46 52 Z" fill="#C20430"/>
  <!-- Wing detail -->
  <path d="M26 22 C28 18 32 16 36 16 C38 16 40 18 40 20 C40 22 38 24 36 24 L28 24 C26 24 25 23 26 22Z" fill="#D4282E"/>
  <!-- Gold wing stripes -->
  <path d="M28 20 L36 20" stroke="#F5C542" stroke-width="1.5" stroke-linecap="round"/>
  <path d="M27 22.5 L35 22.5" stroke="#F5C542" stroke-width="1.5" stroke-linecap="round"/>
  <!-- Eye -->
  <circle cx="33" cy="12" r="1.5" fill="#FFFFFF"/>
  <!-- Beak -->
  <path d="M36 10 L42 8 L38 12Z" fill="#F5C542"/>
  <!-- Talons -->
  <path d="M18 52 L16 56 M22 52 L22 56 M26 52 L28 56" stroke="#F5C542" stroke-width="1.5" stroke-linecap="round"/>
  <path d="M42 52 L40 56 M46 52 L46 56" stroke="#F5C542" stroke-width="1.5" stroke-linecap="round"/>
  <!-- Tail -->
  <path d="M46 38 C50 34 54 32 56 34 C58 36 54 40 50 42 C48 43 46 42 46 40Z" fill="#C20430"/>
</svg>
